<?xml version="1.0" encoding="UTF-8" standalone="no"?>
<svg
   xmlns:dc="http://purl.org/dc/elements/1.1/"
   xmlns:cc="http://creativecommons.org/ns#"
   xmlns:rdf="http://www.w3.org/1999/02/22-rdf-syntax-ns#"
   xmlns:svg="http://www.w3.org/2000/svg"
   xmlns="http://www.w3.org/2000/svg"
   version="1.1"
   id="svg2"
   viewBox="0 0 514.07749 150.20042"
   height="42.389896mm"
   width="145.08409mm">
  <defs
     id="defs4">
    <linearGradient
       y2="101.4977"
       x2="232.211"
       y1="250.03419"
       x1="234.4702"
       gradientUnits="userSpaceOnUse"
       id="SVGID_4_">
      <stop
         id="stop27"
         style="stop-color:#589632"
         offset="0" />
      <stop
         id="stop29"
         style="stop-color:#93B023"
         offset="1" />
    </linearGradient>
    <linearGradient
       gradientTransform="matrix(0.72258369,0,0,0.72258369,16.546399,452.01978)"
       y2="102.9362"
       x2="186.5125"
       y1="250.2354"
       x1="188.7529"
       gradientUnits="userSpaceOnUse"
       id="SVGID_5_">
      <stop
         id="stop36"
         style="stop-color:#589632"
         offset="0" />
      <stop
         id="stop38"
         style="stop-color:#93B023"
         offset="1" />
    </linearGradient>
  </defs>
  <metadata
     id="metadata7">
    <rdf:RDF>
      <cc:Work
         rdf:about="">
        <dc:format>image/svg+xml</dc:format>
        <dc:type
           rdf:resource="http://purl.org/dc/dcmitype/StillImage" />
        <dc:title></dc:title>
      </cc:Work>
    </rdf:RDF>
  </metadata>
  <g
     transform="translate(-108.92777,-183.19148)"
     id="layer1">
    <path
       id="path5769"
       d="m 174.02149,332.96941 c -6.03234,-1.83668 -10.00627,-7.21033 -10.0058,-13.53006 1.2e-4,-1.70033 0.66291,-9.28081 1.47287,-16.84551 1.25148,-11.68841 1.63839,-13.88585 2.57628,-14.63192 0.607,-0.48286 3.10379,-2.42813 5.54842,-4.32283 l 4.44478,-3.44492 5.56216,4.25453 c 3.05919,2.33999 5.56239,4.28526 5.56266,4.32283 2.7e-4,0.0376 0.65848,6.52098 1.4627,14.40759 0.80422,7.8866 1.46243,15.46708 1.4627,16.84551 0.001,6.76717 -5.91863,12.79148 -13.0966,13.32747 -1.64891,0.12313 -3.89449,-0.0491 -4.99017,-0.38269 z m -57.14475,-29.96773 c -8.69621,-4.15939 -10.60394,-14.67549 -3.99566,-22.02551 2.23668,-2.48772 4.00308,-3.46449 17.35614,-9.59746 8.17631,-3.75533 15.42096,-6.82787 16.09922,-6.82787 1.62864,0 12.55539,3.968 13.0267,4.73058 0.20208,0.32699 -0.12509,3.54452 -0.72706,7.15008 -0.81914,4.90634 -1.38602,6.80129 -2.25333,7.53231 -2.63384,2.21998 -25.00726,17.97168 -26.89397,18.93433 -1.12409,0.57355 -3.75783,1.14898 -5.85277,1.27875 -3.13623,0.19425 -4.33003,-0.0133 -6.75927,-1.17521 z M 290.0536,290.68103 c -10.78187,-2.75271 -18.60294,-11.02789 -20.72215,-21.92533 -0.43493,-2.23653 -0.5899,-5.81932 -0.39239,-9.07179 0.82834,-13.6405 8.58328,-24.3097 20.32566,-27.96391 4.41457,-1.37381 12.15361,-1.59826 16.69415,-0.48418 3.186,0.78173 8.50912,3.33279 10.81386,5.18246 l 1.46319,1.17428 -2.04769,3.87748 c -1.12623,2.13262 -2.25096,4.00311 -2.4994,4.15666 -0.24845,0.15354 -1.274,-0.41273 -2.27901,-1.25838 -1.005,-0.84567 -3.17245,-2.24095 -4.81655,-3.10064 -2.55282,-1.33486 -3.72195,-1.56512 -8.00744,-1.57709 -4.57814,-0.0128 -5.27005,0.14157 -7.89066,1.76031 -3.77409,2.33124 -6.90045,6.56358 -8.4822,11.4828 -1.70179,5.29257 -1.46083,13.91657 0.51134,18.3012 1.87106,4.15983 4.78381,7.43852 8.37571,9.42797 2.9099,1.61172 3.57318,1.73776 9.06773,1.72311 8.1849,-0.0218 8.05103,0.13211 7.60396,-8.74383 -0.19511,-3.87356 -0.51695,-8.17171 -0.7152,-9.55144 l -0.36047,-2.5086 6.06258,0.16749 6.06258,0.16749 0.1578,12.75484 0.15781,12.75485 -1.91364,0.79923 c -6.07196,2.53598 -21.42034,3.92285 -27.16957,2.45502 z m 51.00812,-0.0262 c -3.91013,-1.23661 -5.87053,-2.50789 -8.67158,-5.62333 -3.47347,-3.86334 -5.13359,-8.27827 -5.50046,-14.62794 -0.64494,-11.16242 3.59169,-19.91024 11.65824,-24.07206 3.10111,-1.59997 10.85967,-2.19273 14.29245,-1.09196 3.02667,0.97054 5.78682,3.10248 7.6377,5.89936 1.9651,2.96945 3.70209,9.28237 3.70209,13.45483 0,5.2258 0.004,5.22455 -13.94641,5.22455 l -11.80577,0 0,1.77463 c 0,2.24644 1.43039,5.70225 3.10064,7.49111 2.02154,2.16509 4.18902,3.02508 7.62433,3.02508 3.76588,0 7.2025,-1.11956 11.08574,-3.61143 1.64204,-1.05369 3.05162,-1.60185 3.34297,-1.30002 0.27709,0.28703 0.78797,2.08193 1.13531,3.98868 0.77279,4.24233 0.25034,5.02481 -4.92638,7.37834 -6.27303,2.85196 -13.69945,3.68075 -18.72887,2.09016 z m 11.6609,-29.54347 c 0.64498,-1.0436 -1.46016,-6.45805 -2.97379,-7.64868 -3.18493,-2.50526 -8.06748,-0.60263 -9.93724,3.87234 -1.74476,4.17581 -1.58859,4.28938 5.89781,4.28938 3.68287,0 6.83883,-0.23087 7.01322,-0.51304 z m 31.55153,29.31336 c -5.46167,-1.94984 -8.79508,-5.24242 -11.70269,-11.55933 -2.25702,-4.90346 -2.61291,-12.51819 -0.85548,-18.30411 3.13607,-10.32487 10.8534,-15.90989 21.98409,-15.90989 8.89257,0 14.47574,3.22415 18.00926,10.39993 1.88096,3.81981 1.92673,4.09448 1.92673,11.5631 l 0,7.65035 -2.20408,4.46157 c -4.00047,8.09785 -10.21002,12.10483 -19.45116,12.5517 -3.51865,0.17015 -5.43382,-0.0419 -7.70667,-0.85332 z m 13.23091,-9.23074 c 3.33579,-3.01368 4.42546,-6.31908 4.42546,-13.42416 0,-5.09315 -0.19914,-6.27743 -1.5344,-9.12477 -1.9635,-4.18703 -4.44128,-6.0249 -8.12267,-6.0249 -5.6128,0 -9.28241,5.02809 -9.80706,13.43761 -0.34769,5.57305 0.48351,9.70995 2.60984,12.98924 1.97418,3.04464 3.9826,4.19826 7.34186,4.21709 2.37383,0.0133 3.11453,-0.28812 5.08697,-2.07011 z m 103.33726,9.76763 c -13.36542,-3.55176 -19.59886,-20.72564 -12.56014,-34.60469 2.11728,-4.17488 5.8282,-7.72408 10.21903,-9.77368 3.20664,-1.49684 4.09629,-1.63922 10.24235,-1.63922 6.16563,0 6.97947,0.13131 9.69421,1.56405 3.5031,1.84882 6.97992,5.51267 8.5068,8.96445 0.60285,1.36284 1.39844,4.5107 1.76796,6.99524 1.73043,11.63459 -3.6414,22.73471 -13.0445,26.95456 -3.82053,1.71456 -11.2597,2.48693 -14.82571,1.53929 z m 10.85269,-8.99882 c 3.35268,-2.25949 4.89458,-6.15533 5.1396,-12.98596 0.17707,-4.93624 0.008,-6.42808 -1.04236,-9.21925 -2.32441,-6.17448 -7.0694,-8.73435 -11.85798,-6.39725 -3.13796,1.5315 -4.81778,3.98244 -6.06519,8.84936 -2.09746,8.1836 0.84729,18.42182 5.89963,20.5116 2.29366,0.94872 5.90602,0.60304 7.9263,-0.7585 z m 36.1786,8.69771 c -3.71825,-1.32838 -5.99863,-2.97299 -8.25053,-5.95035 -2.96085,-3.91469 -4.00503,-7.15314 -4.38409,-13.59703 -0.91062,-15.47989 8.73355,-26.46173 23.23849,-26.46173 l 4.69683,0 -0.0349,-6.87701 c -0.0192,-3.78235 -0.25837,-8.19387 -0.53151,-9.80339 -0.34563,-2.03666 -0.29054,-3.13994 0.18121,-3.62878 0.39983,-0.41432 2.83823,-0.77439 5.94532,-0.87792 l 5.26749,-0.17551 0.29264,29.55648 0.29264,29.55649 1.60951,3.27735 c 0.88523,1.80255 1.60951,3.54365 1.60951,3.8691 0,0.60745 -4.46716,1.32593 -8.30034,1.33498 -1.77442,0.004 -2.38687,-0.3308 -3.46845,-1.89707 -0.72243,-1.04618 -1.37463,-1.98772 -1.44934,-2.09231 -0.0747,-0.10459 -1.18793,0.50609 -2.47384,1.35706 -4.5138,2.98709 -10.01755,3.91837 -14.24065,2.40964 z m 12.37432,-9.63043 2.63374,-1.60478 0,-13.1437 0,-13.14369 -3.29134,-0.52252 c -4.32817,-0.68711 -7.09187,0.59024 -9.69078,4.47897 -5.0345,7.53308 -3.4822,21.76286 2.73978,25.1153 2.41263,1.29993 3.92372,1.06566 7.6086,-1.17958 z m 39.46993,9.93172 c -3.16861,-0.82384 -7.90202,-3.75614 -9.67322,-5.99247 -3.34182,-4.21938 -4.84306,-8.4774 -5.11459,-14.50661 -0.39377,-8.74343 1.43891,-14.91868 5.8467,-19.70056 3.84101,-4.167 7.33451,-5.69374 13.65958,-5.96956 4.86799,-0.21228 5.51162,-0.10427 8.48652,1.42406 5.30717,2.72654 8.41909,8.59199 9.18697,17.3158 0.56006,6.36299 0.72733,6.28584 -13.63273,6.28584 -7.38661,0 -12.01139,0.22406 -12.23939,0.59297 -0.62662,1.0139 1.35427,6.6412 2.93129,8.32716 2.60773,2.78792 4.74352,3.54452 9.12133,3.23128 3.18093,-0.22759 4.79389,-0.74692 8.45761,-2.72309 2.48982,-1.34302 4.64616,-2.32275 4.79172,-2.17716 0.46681,0.4668 1.30452,4.68472 1.31892,6.64086 0.0111,1.54742 -0.38763,2.15963 -2.18156,3.34679 -5.00143,3.30979 -15.63088,5.29005 -20.95915,3.90469 z m 10.85101,-30.94689 c -0.0176,-2.24103 -1.9917,-6.36308 -3.41053,-7.12242 -1.74629,-0.93459 -4.60338,-0.76896 -6.33773,0.36741 -1.42671,0.93483 -4.26704,6.00048 -4.2798,7.63293 -0.004,0.54495 1.78609,0.7316 7.01761,0.7316 l 7.02332,0 -0.0129,-1.60952 z m -185.70706,29.47402 c -0.17181,-0.44774 -0.37467,-13.68231 -0.4508,-29.41017 l -0.13842,-28.59609 3.60918,-0.1743 c 1.98505,-0.0959 3.96691,0.0358 4.40413,0.29264 1.01379,0.59548 28.22574,32.60795 29.86822,35.13734 0.67677,1.0422 1.45385,1.89817 1.72685,1.90215 0.27301,0.004 0.4097,-8.35489 0.30375,-18.57529 l -0.19262,-18.58254 4.90932,-0.17148 c 2.70013,-0.0943 5.11532,0.0374 5.36709,0.29264 0.25177,0.25526 0.51205,13.50116 0.5784,29.43532 l 0.12064,28.97121 -3.48743,0.17141 -3.48743,0.17141 -14.8875,-16.76467 c -8.18813,-9.22057 -15.37427,-17.52816 -15.96921,-18.46131 -0.59494,-0.93316 -1.35107,-1.69665 -1.68029,-1.69665 -0.40028,0 -0.5197,6.10731 -0.36047,18.43622 l 0.23809,18.43622 -5.07956,0 c -3.79819,0 -5.15835,-0.20535 -5.39194,-0.81406 z m -253.96935,-19.49776 -6.877,-3.91204 0,-8.04027 0,-8.04026 1.60951,-1.11238 c 0.88523,-0.6118 4.04142,-2.49069 7.01376,-4.1753 l 5.40425,-3.06294 6.00865,3.35885 c 8.74742,4.88984 8.05712,3.76864 8.05712,13.08638 l 0,7.99291 -6.91379,3.91456 c -3.80258,2.15301 -7.02892,3.91186 -7.16964,3.90855 -0.14072,-0.004 -3.35051,-1.76644 -7.13286,-3.91806 z m -40.47649,-24.75209 c -8.3398,-3.84104 -15.94513,-7.71743 -16.90073,-8.61421 -2.68168,-2.51658 -4.50341,-6.90642 -4.5101,-10.86807 -0.018,-10.66259 11.2138,-16.92627 21.14375,-11.7913 2.20866,1.14215 25.82623,18.04028 26.65956,19.07464 0.78145,0.96998 2.70331,11.5229 2.43114,13.34945 -0.16582,1.11292 -1.22316,1.71221 -6.34439,3.59597 -3.37998,1.24326 -6.40879,2.25524 -6.73069,2.24885 -0.3219,-0.006 -7.40874,-3.1543 -15.74854,-6.99533 z m 72.5204,4.70239 c -4.7312,-1.8068 -5.88998,-2.48226 -6.04698,-3.52484 -0.28132,-1.86804 1.60669,-12.41177 2.39192,-13.35792 1.31186,-1.58069 25.36441,-18.4723 27.94406,-19.62453 11.48367,-5.12933 23.45145,5.94503 19.00547,17.58667 -1.97096,5.16087 -4.38839,6.82329 -20.88508,14.36218 -8.27658,3.78235 -15.3877,6.85823 -15.80248,6.83528 -0.41477,-0.0229 -3.38788,-1.04752 -6.60691,-2.27684 z m -30.14176,-17.64498 c -2.41427,-1.94324 -4.72015,-3.85388 -5.12419,-4.24587 -0.73406,-0.71216 -3.65496,-25.18792 -3.65496,-30.62675 0,-5.75865 2.93218,-10.65047 7.79495,-13.0045 2.97033,-1.43791 8.77285,-1.65284 11.6843,-0.43279 4.87835,2.04429 8.59735,7.5502 8.60832,12.74445 0.007,3.43581 -2.76236,30.21773 -3.19779,30.92227 -0.66461,1.07537 -10.20456,8.21821 -10.94877,8.19766 -0.42476,-0.0117 -2.74759,-1.61124 -5.16186,-3.55447 z"
       style="fill:#0776a2" />
    <g
       transform="matrix(0.81470176,-0.42285871,0.02204934,0.92197193,67.199798,-194.57202)"
       id="g5782">
      <polygon
         points="195,180 216.513,180 198.306,162 176,162 176,183.433 195,202.37 "
         id="polygon3"
         transform="matrix(0.72258369,0,0,0.72258369,16.546399,452.01978)"
         style="font-style:normal;font-weight:normal;font-size:medium;line-height:125%;font-family:sans-serif;letter-spacing:0px;word-spacing:0px;fill:#ee7913;fill-opacity:1;stroke:none;stroke-width:1px;stroke-linecap:butt;stroke-linejoin:miter;stroke-opacity:1" />
      <polygon
         points="264,226.946 225.617,189 204,189 204,211.34 240.782,248 264,248 "
         id="polygon31"
         style="font-style:normal;font-weight:normal;font-size:medium;line-height:125%;font-family:sans-serif;letter-spacing:0px;word-spacing:0px;fill:url(#SVGID_4_);fill-opacity:1;stroke:none;stroke-width:1px;stroke-linecap:butt;stroke-linejoin:miter;stroke-opacity:1"
         transform="matrix(0.72258369,0,0,0.72258369,16.546399,452.01978)" />
      <polygon
         points="204,189 225.617,189 216.513,180 195,180 195,202.37 204,211.34 "
         id="polygon33"
         transform="matrix(0.72258369,0,0,0.72258369,16.546399,452.01978)"
         style="font-style:normal;font-weight:normal;font-size:medium;line-height:125%;font-family:sans-serif;letter-spacing:0px;word-spacing:0px;fill:#f0e64a;fill-opacity:1;stroke:none;stroke-width:1px;stroke-linecap:butt;stroke-linejoin:miter;stroke-opacity:1" />
      <path
         d="m 143.72113,569.07834 63.58736,62.1422 0,-15.21378 -27.73479,-27.41866 -6.57805,-6.50325 -13.15611,-13.00651 z"
         id="polygon4174"
         style="font-style:normal;font-weight:normal;font-size:medium;line-height:125%;font-family:sans-serif;letter-spacing:0px;word-spacing:0px;fill:#ffffff;fill-opacity:0.17254902;stroke:none;stroke-width:1px;stroke-linecap:butt;stroke-linejoin:miter;stroke-opacity:1" />
    </g>
    <text
       id="text5788"
       y="471.00211"
       x="472.69131"
       style="font-style:normal;font-variant:normal;font-weight:bold;font-stretch:normal;font-size:40px;line-height:125%;font-family:True;-inkscape-font-specification:'True Bold';letter-spacing:28.27000046px;word-spacing:0px;fill:#000000;fill-opacity:1;stroke:none;stroke-width:1px;stroke-linecap:butt;stroke-linejoin:miter;stroke-opacity:1"
       xml:space="preserve"><tspan
         y="471.00211"
         x="472.69131"
         id="tspan5790" /></text>
    <g
       id="text5792"
       style="font-style:normal;font-weight:normal;font-size:19.86998749px;line-height:125%;font-family:sans-serif;letter-spacing:14.04311371px;word-spacing:0px;fill:#0776a2;fill-opacity:1;stroke:none;stroke-width:1px;stroke-linecap:butt;stroke-linejoin:miter;stroke-opacity:1">
      <path
         id="path5799"
         style="font-style:normal;font-variant:normal;font-weight:bold;font-stretch:normal;font-family:Trueno;-inkscape-font-specification:'Trueno Bold';letter-spacing:2.48374844px;fill:#0776a2;fill-opacity:1"
         d="m 504.8936,313.31742 c 0,4.05347 3.19907,7.11345 7.43137,7.11345 1.94726,0 4.29192,-0.75506 5.78217,-1.80817 l 0,-5.4245 -3.05998,0 0,3.59646 c -0.83454,0.41727 -1.74856,0.67558 -2.46388,0.67558 -2.30491,0 -4.07334,-1.7883 -4.07334,-4.15282 0,-2.32479 1.74856,-4.11309 4.0336,-4.11309 1.29155,0 2.70232,0.57623 3.71569,1.51012 l 1.987,-2.40427 c -1.43064,-1.27168 -3.61634,-2.06648 -5.68282,-2.06648 -4.39126,0 -7.66981,3.04011 -7.66981,7.07372 z" />
      <path
         id="path5801"
         style="font-style:normal;font-variant:normal;font-weight:bold;font-stretch:normal;font-family:Trueno;-inkscape-font-specification:'Trueno Bold';letter-spacing:2.48374844px;fill:#0776a2;fill-opacity:1"
         d="m 520.78502,320.27191 3.53686,0 0,-13.90899 -3.53686,0 0,13.90899 z" />
      <path
         id="path5803"
         style="font-style:normal;font-variant:normal;font-weight:bold;font-stretch:normal;font-family:Trueno;-inkscape-font-specification:'Trueno Bold';letter-spacing:2.48374844px;fill:#0776a2;fill-opacity:1"
         d="m 526.22446,318.16569 c 1.64921,1.35116 4.03361,2.22544 6.35839,2.22544 3.09972,0 5.5636,-1.47038 5.5636,-4.25218 0,-5.0271 -7.35189,-3.65607 -7.35189,-6.06034 0,-0.67558 0.61597,-1.01337 1.52999,-1.01337 1.13258,0 2.98049,0.5961 4.45087,1.45051 l 1.33129,-2.76193 c -1.43064,-0.93389 -3.47725,-1.54986 -5.48412,-1.54986 -3.33815,0 -5.54372,1.62934 -5.54372,4.19257 0,4.92775 7.35189,3.45738 7.35189,5.92125 0,0.7948 -0.69545,1.21207 -1.80817,1.21207 -1.4505,0 -3.59646,-0.83454 -5.0271,-2.08635 l -1.37103,2.72219 z" />
      <path
         id="path5805"
         style="font-style:normal;font-variant:normal;font-weight:bold;font-stretch:normal;font-family:Trueno;-inkscape-font-specification:'Trueno Bold';letter-spacing:2.48374844px;fill:#0776a2;fill-opacity:1"
         d="m 548.59713,318.90088 c 1.29155,0.9935 3.02024,1.51012 4.80854,1.51012 2.5831,0 4.51049,-1.21207 4.51049,-3.41764 0.0199,-3.73555 -5.62321,-3.02023 -5.62321,-4.49061 0,-0.49675 0.43714,-0.73519 1.05311,-0.73519 0.89415,0 2.08635,0.37753 3.3779,1.07298 l 1.17233,-2.22544 c -1.31142,-0.77493 -2.86128,-1.21207 -4.41114,-1.21207 -2.48375,0 -4.35153,1.1922 -4.35153,3.39777 -0.0199,3.75542 5.52386,2.94075 5.52386,4.51048 0,0.49675 -0.49675,0.73519 -1.17233,0.73519 -1.1922,0 -2.5831,-0.47688 -3.79517,-1.33129 l -1.09285,2.1857 z" />
      <path
         id="path5807"
         style="font-style:normal;font-variant:normal;font-weight:bold;font-stretch:normal;font-family:Trueno;-inkscape-font-specification:'Trueno Bold';letter-spacing:2.48374844px;fill:#0776a2;fill-opacity:1"
         d="m 561.44649,314.94675 c 0,3.25868 2.1857,5.44438 5.68282,5.44438 1.96713,0 3.5766,-0.69545 4.66945,-1.88765 l -1.80817,-1.76843 c -0.71532,0.71532 -1.62934,1.09285 -2.56323,1.09285 -1.27168,0 -2.1857,-0.71532 -2.52349,-1.987 l 7.53072,0 c 0.23844,-3.91438 -1.62933,-6.39813 -5.40463,-6.39813 -3.31829,0 -5.58347,2.1857 -5.58347,5.50398 z m 3.39777,-0.95375 c 0.21857,-1.29155 1.03324,-2.16583 2.22544,-2.16583 1.23194,0 2.06648,0.85441 2.06648,2.16583 l -4.29192,0 z" />
      <path
         id="path5809"
         style="font-style:normal;font-variant:normal;font-weight:bold;font-stretch:normal;font-family:Trueno;-inkscape-font-specification:'Trueno Bold';letter-spacing:2.48374844px;fill:#0776a2;fill-opacity:1"
         d="m 576.77743,320.27191 3.43751,0 0,-5.50398 c 0.17883,-1.51012 1.49025,-2.44401 3.47725,-2.26518 l 0,-3.09972 c -1.52999,0.0199 -2.74206,0.71532 -3.47725,1.96713 l 0,-1.80817 -3.43751,0 0,10.70992 z" />
      <path
         id="path5811"
         style="font-style:normal;font-variant:normal;font-weight:bold;font-stretch:normal;font-family:Trueno;-inkscape-font-specification:'Trueno Bold';letter-spacing:2.48374844px;fill:#0776a2;fill-opacity:1"
         d="m 586.71677,309.56199 4.03361,10.70992 3.51699,0 4.03361,-10.70992 -3.41764,0 -2.32479,7.57046 -2.30492,-7.57046 -3.53686,0 z" />
      <path
         id="path5813"
         style="font-style:normal;font-variant:normal;font-weight:bold;font-stretch:normal;font-family:Trueno;-inkscape-font-specification:'Trueno Bold';letter-spacing:2.48374844px;fill:#0776a2;fill-opacity:1"
         d="m 600.75957,314.94675 c 0,3.25868 2.1857,5.44438 5.68282,5.44438 1.96713,0 3.5766,-0.69545 4.66945,-1.88765 l -1.80817,-1.76843 c -0.71532,0.71532 -1.62934,1.09285 -2.56323,1.09285 -1.27168,0 -2.1857,-0.71532 -2.52349,-1.987 l 7.53072,0 c 0.23844,-3.91438 -1.62933,-6.39813 -5.40463,-6.39813 -3.31829,0 -5.58347,2.1857 -5.58347,5.50398 z m 3.39777,-0.95375 c 0.21857,-1.29155 1.03324,-2.16583 2.22544,-2.16583 1.23194,0 2.06648,0.85441 2.06648,2.16583 l -4.29192,0 z" />
      <path
         id="path5815"
         style="font-style:normal;font-variant:normal;font-weight:bold;font-stretch:normal;font-family:Trueno;-inkscape-font-specification:'Trueno Bold';letter-spacing:2.48374844px;fill:#0776a2;fill-opacity:1"
         d="m 616.09051,320.27191 3.43751,0 0,-5.50398 c 0.17883,-1.51012 1.49025,-2.44401 3.47725,-2.26518 l 0,-3.09972 c -1.52999,0.0199 -2.74206,0.71532 -3.47725,1.96713 l 0,-1.80817 -3.43751,0 0,10.70992 z" />
      <g
         transform="matrix(0.11349915,0,0,0.11349915,446.5087,269.07082)"
         id="g6655">
        <polygon
           transform="translate(374.58808,326.00762)"
           points="68.613,88.548 68.613,69.625 86.891,69.625 71.697,54.625 52.613,54.625 52.613,72.746 "
           id="polygon6082" />
        <polygon
           transform="translate(374.58808,326.00762)"
           points="126.613,126.625 126.613,109.057 94.488,77.625 76.613,77.625 76.613,96.033 107.143,126.625 "
           id="polygon6084" />
        <path
           d="m 443.51108,427.55962 c -1.165,0.242 -1.769,0.157 -4.685,0.157 -20.866,0 -38.612,-17.158 -38.612,-39.406 0,-22.248 17.551,-39.027 38.612,-39.027 21.061,0 37.833,16.78 37.833,39.027 0,3.619 -0.451,7.099 -1.284,10.398 l 19.313,19.311 c 4.979,-8.726 7.765,-18.869 7.765,-29.857 0,-34.289 -27.363,-59.963 -64.016,-59.963 -36.486,-10e-4 -63.849,25.504 -63.849,59.962 0,34.625 27.363,60.638 63.848,60.638 9.417,0 16.069,-1.469 23.042,-3.761 l -17.967,-17.479 z"
           id="path6086" />
      </g>
    </g>
  </g>
</svg>
