<?xml version="1.0" encoding="UTF-8" standalone="no"?>
<!-- Created with Inkscape (http://www.inkscape.org/) -->

<svg
   xmlns:dc="http://purl.org/dc/elements/1.1/"
   xmlns:cc="http://creativecommons.org/ns#"
   xmlns:rdf="http://www.w3.org/1999/02/22-rdf-syntax-ns#"
   xmlns:svg="http://www.w3.org/2000/svg"
   xmlns="http://www.w3.org/2000/svg"
   version="1.1"
   width="745"
   height="1053"
   id="svg5793">
  <metadata
     id="metadata5799">
    <rdf:RDF>
      <cc:Work
         rdf:about="">
        <dc:format>image/svg+xml</dc:format>
        <dc:type
           rdf:resource="http://purl.org/dc/dcmitype/StillImage" />
        <dc:title></dc:title>
      </cc:Work>
    </rdf:RDF>
  </metadata>
  <defs
     id="defs5797" />
  <path
     d="m 650.38454,895.74233 c -0.55,-0.17079 -2.73778,-0.60221 -4.86173,-0.9587 -4.63716,-0.77832 -8.63827,-4.46997 -8.63827,-7.97017 0,-2.33671 0.35631,-2.54545 4.34501,-2.54545 3.07502,0 4.87405,0.58457 6.15499,2 2.22402,2.45752 8.64771,2.70943 10.92857,0.42857 0.89798,-0.89798 1.57143,-3.26375 1.57143,-5.52032 l 0,-3.9489 -3.96016,2.02033 c -5.14103,2.62275 -8.9508,2.55491 -13.08789,-0.23308 -5.38134,-3.62648 -7.45195,-8.14079 -7.45195,-16.2466 0,-5.25989 0.51061,-7.86921 2.05407,-10.4966 4.35562,-7.4145 12.61015,-10.0299 19.12266,-6.05891 2.79304,1.70305 3.32623,1.75688 4.41441,0.4457 0.78259,-0.94296 2.55608,-1.3808 4.82327,-1.19074 l 3.58559,0.30055 0,20 c 0,22.08303 -0.52908,24.51501 -6,27.57954 -2.84184,1.59185 -10.84061,3.06533 -13,2.39478 z m 7.04545,-24.92886 c 2.3386,-2.33859 2.98879,-4.99329 2.58279,-10.54545 -0.61838,-8.45653 -9.25149,-11.3201 -13.69278,-4.54184 -2.47468,3.77684 -1.56084,13.21214 1.52137,15.70797 3.1189,2.52553 6.67244,2.29551 9.58862,-0.62068 z M 97.134536,894.60573 c -0.9521,-0.38418 -1.25,-6.32339 -1.25,-24.92105 l 0,-24.41667 3.63976,0 c 2.182974,0 4.108234,0.64067 4.810224,1.60071 1.06007,1.44974 1.49491,1.40293 4.61025,-0.49626 6.5409,-3.98749 14.59403,-1.61569 18.67332,5.49965 2.64152,4.6075 3.11295,15.43419 0.90242,20.72471 -3.23665,7.74639 -11.77553,11.36407 -18.5224,7.84741 -2.15355,-1.1225 -4.18511,-1.77135 -4.51456,-1.4419 -0.32946,0.32946 -0.59901,3.85087 -0.59901,7.82536 0,5.66699 -0.34133,7.35732 -1.58179,7.83333 -1.81781,0.69756 -4.358904,0.67478 -6.168214,-0.0553 z m 20.691514,-22.77545 c 4.79687,-5.10604 3.22984,-17.72821 -2.37561,-19.13509 -6.86063,-1.7219 -11.26846,3.6474 -10.26955,12.50967 0.89608,7.95002 7.93569,11.63842 12.64516,6.62543 z m 390.72516,22.77106 c -0.36667,-0.36666 -0.66667,-11.61666 -0.66667,-25 l 0,-24.33333 3.89301,0 c 2.53826,0 4.09335,0.52208 4.46871,1.50026 0.49164,1.28117 1.17124,1.18985 4.65384,-0.62539 5.35807,-2.79278 11.05201,-2.12124 15.21918,1.79494 4.11484,3.86699 5.7693,8.20188 5.7433,15.04807 -0.0529,13.92628 -9.83812,22.52892 -19.94052,17.53064 -2.19031,-1.08367 -4.21979,-1.73292 -4.50995,-1.44275 -0.29016,0.29016 -0.52757,3.77942 -0.52757,7.75391 0,5.66699 -0.34133,7.35732 -1.58179,7.83333 -2.10207,0.80664 -5.91896,0.77291 -6.75154,-0.0597 z m 21.70184,-23.61297 c 2.99803,-4.03312 2.77784,-12.87123 -0.40508,-16.25928 -2.79218,-2.97214 -6.83893,-3.19223 -10.10265,-0.54943 -2.04337,1.65462 -2.36078,2.78663 -2.36078,8.41943 0,5.54322 0.36588,6.89725 2.46852,9.13542 3.22251,3.43019 7.52495,3.12152 10.39999,-0.74614 z M 58.384533,881.33294 c -6.86226,-1.67061 -11.60577,-5.45241 -15.13303,-12.06493 -2.86638,-5.37358 -2.65707,-21.0103 0.35677,-26.65327 7.62648,-14.27943 28.71536,-16.34277 39.038103,-3.81949 3.76357,4.56586 5.23816,9.5375 5.23816,17.66064 0,9.1308 -2.26295,14.99337 -7.60121,19.69229 -6.068983,5.34214 -13.766413,7.16458 -21.898793,5.18476 z m 12.61695,-9.79309 c 6.424273,-3.79491 8.890383,-16.25382 4.939673,-24.95552 -3.063703,-6.74801 -10.348883,-9.16959 -17.449433,-5.80016 -10.40618,4.93805 -9.83289,27.20898 0.81125,31.51499 3.46596,1.40214 8.60406,1.06863 11.69851,-0.75931 z m 75.351757,9.71719 c -14.33253,-4.41079 -15.18906,-28.39396 -1.27109,-35.59122 3.9949,-2.06584 11.93062,-1.42035 15.62688,1.2711 5.65382,4.11684 9.56266,17.20108 5.59372,18.7241 -0.86998,0.33385 -5.79342,0.60699 -10.94098,0.60699 -5.72713,0 -9.62298,0.42682 -10.03893,1.09983 -0.37385,0.60491 0.20679,2.29241 1.29033,3.75 2.62825,3.53559 8.58449,4.22291 10.4674,1.20788 1.38124,-2.21171 6.11764,-2.78601 8.80397,-1.0675 1.33267,0.85254 1.33152,1.26359 -0.0102,3.68462 -2.96254,5.3455 -12.57044,8.45323 -19.52106,6.31421 z m 11.32005,-21.83731 c 1.95335,-1.23931 -0.21897,-5.98459 -3.27082,-7.1449 -3.46332,-1.31676 -7.31051,0.31743 -8.57462,3.64228 -1.29628,3.40949 -0.0194,4.32027 6.05669,4.32027 2.475,0 5.07994,-0.36794 5.78875,-0.81764 z m 73.71125,22.3568 c -0.55,-0.18347 -2.22925,-0.60444 -3.73166,-0.9355 -4.16513,-0.91778 -9.59041,-6.24711 -10.93782,-10.74437 -1.39094,-4.64254 -0.43087,-5.78798 4.87256,-5.81334 2.65919,-0.0127 3.47394,0.55547 4.79819,3.34613 1.86749,3.93544 5.05283,5.63856 10.54578,5.63856 4.62421,0 7.95295,-2.71095 7.95295,-6.47695 0,-3.04955 -2.56734,-4.76902 -10.4699,-7.01219 -12.40219,-3.52042 -16.7727,-7.42788 -16.93912,-15.14446 -0.18336,-8.50184 6.81186,-13.88899 17.95509,-13.82755 9.92479,0.0547 16.95423,4.60229 17.6878,11.44281 0.22789,2.12507 -0.29046,2.62174 -3.60738,3.45654 -3.73125,0.93907 -3.98271,0.83875 -6.84699,-2.73166 -2.67739,-3.33745 -3.44629,-3.70654 -7.72151,-3.70654 -3.32981,0 -5.24235,0.54623 -6.403,1.82874 -3.51184,3.88054 -1.14596,6.04315 10.44148,9.5444 13.25884,4.00626 16.61877,7.83141 15.65838,17.82641 -0.4158,4.32731 -1.07713,5.70769 -4.03169,8.41535 -4.66041,4.27094 -13.97868,6.6431 -19.22316,4.89363 z m 37.51971,-0.79297 c -4.02341,-2.03574 -4.98896,-5.29569 -5.00497,-16.89816 -0.0135,-9.79749 -0.18045,-10.73521 -2.01474,-11.31739 -1.39377,-0.44236 -2,-1.51303 -2,-3.5322 0,-1.87398 0.70646,-3.27552 2,-3.9678 1.30628,-0.6991 2,-2.09382 2,-4.021 0,-2.33946 0.83688,-3.50444 4.04039,-5.62442 2.41734,-1.59973 4.40176,-2.3084 4.94,-1.76418 0.49479,0.50027 1.03912,3.14149 1.20961,5.86937 0.27213,4.35379 0.61544,5.03056 2.81,5.53929 1.90053,0.44058 2.57271,1.31691 2.80324,3.6546 0.26843,2.72203 -0.0473,3.14516 -2.75,3.6857 l -3.05324,0.61064 0,10.05 0,10.05 2.91142,0.58228 c 5.16625,1.03325 5.09271,6.71689 -0.10035,7.75551 -4.1839,0.83678 -4.93747,0.77176 -7.79136,-0.67224 z m 52.63548,-0.1742 c -8.17584,-2.91509 -11.11433,-8.40989 -10.48199,-19.60069 0.41519,-7.34799 1.98388,-10.47558 7.21192,-14.37887 3.89303,-2.90657 13.35035,-2.89007 17.29155,0.0302 4.0636,3.01093 6.95036,7.67416 7.71645,12.46505 1.02,6.37868 0.0434,6.943 -12.01556,6.943 -10.21983,-4e-5 -10.37756,0.0356 -10.37756,2.34497 0,5.18295 7.85725,7.68018 11.5,3.65499 2.80337,-3.09769 9.5,-2.44924 9.5,0.9199 0,2.43521 -5.05259,6.948 -9.06867,8.0998 -4.45409,1.27741 -6.6081,1.18604 -11.27614,-0.47835 z m 11.9532,-21.96321 c 0.81731,-2.12988 -1.39264,-5.54561 -4.30417,-6.65258 -4.17663,-1.58795 -9.41189,2.74551 -7.94259,6.57444 0.79237,2.06488 11.45826,2.13293 12.24676,0.0781 z m 26.13213,21.99255 c -2.06771,-0.73784 -4.50152,-1.95559 -5.40847,-2.70611 -3.00679,-2.48816 -5.28789,-9.10898 -5.29364,-15.36458 -0.0126,-13.69542 10.44935,-21.64066 22.45707,-17.05488 5.33983,2.0393 8.07833,5.55594 9.65893,12.40349 1.7488,7.57618 0.91775,8.15139 -11.77685,8.15139 -9.27787,0 -10.37756,0.18836 -10.37756,1.77749 0,0.97763 0.70052,2.77763 1.5567,4 2.02882,2.89655 7.41427,3.01706 9.9433,0.22251 2.07625,-2.29423 6.28135,-2.61159 8.93112,-0.67403 1.70957,1.25007 1.62994,1.5349 -1.39114,4.97571 -4.69631,5.34881 -11.09213,6.84086 -18.29946,4.26901 z m 12.0535,-23.12586 c 0.37806,-2.64263 -2.99528,-5.69483 -6.29402,-5.69483 -4.3494,0 -8.2622,5.15446 -5.7897,7.62696 0.39066,0.39067 3.20316,0.57817 6.25,0.41667 4.7117,-0.24974 5.58365,-0.60081 5.83372,-2.3488 z m 23.22569,23.27072 c -4.02341,-2.03574 -4.98896,-5.29569 -5.00497,-16.89816 -0.0135,-9.79749 -0.18045,-10.73521 -2.01474,-11.31739 -1.47029,-0.46665 -2,-1.51303 -2,-3.95076 0,-2.47496 0.50724,-3.44862 2,-3.83898 1.44989,-0.37915 2,-1.36401 2,-3.58059 0,-2.4109 0.78933,-3.59393 3.73213,-5.59362 2.05268,-1.39482 4.07768,-2.53605 4.5,-2.53605 0.42233,0 0.76787,1.93899 0.76787,4.30887 0,4.77338 1.47196,7.34615 4.5,7.86532 1.33282,0.22852 2.10645,1.26674 2.31912,3.11229 0.26704,2.31747 -0.18269,2.9443 -2.75603,3.84137 -3.86242,1.34645 -4.49881,3.72995 -3.58877,13.44136 0.68293,7.28786 0.7929,7.53423 3.61502,8.09866 2.4112,0.48224 2.91066,1.07971 2.91066,3.48188 0,4.34286 -5.75247,6.21096 -10.98029,3.5658 z m 77.98029,-0.41902 c -5.02108,-2.57729 -6.99204,-8.4037 -4.56967,-13.50848 1.85706,-3.91346 4.83686,-5.52194 14.39639,-7.77108 6.19082,-1.45657 7.54437,-3.48831 4.15327,-6.23425 -2.55805,-2.07138 -6.23467,-1.74865 -9.05873,0.7952 -2.11562,1.9057 -7.82034,1.84865 -8.5626,-0.0856 -0.86894,-2.26443 2.35737,-6.47568 6.187,-8.07582 7.13189,-2.97988 19.04455,-0.9192 21.52966,3.72426 0.55339,1.03402 1.18768,7.61286 1.40953,14.61965 0.22186,7.00679 0.54102,13.63962 0.70926,14.73962 0.24682,1.61377 -0.3398,2.06186 -3.03765,2.32033 -2.0837,0.19964 -4.03003,-0.30092 -5.16544,-1.32846 -1.64594,-1.48956 -2.04736,-1.50123 -4.15646,-0.12087 -3.90871,2.55816 -9.87611,2.95738 -13.83456,0.92553 z m 13.41988,-7.41216 c 2.07758,-1.63423 2.62025,-2.82885 2.38485,-5.25 -0.2755,-2.83376 -0.59245,-3.10352 -3.30473,-2.81269 -7.13545,0.76512 -11.07219,5.82432 -6.90384,8.87229 2.53296,1.85216 4.72871,1.62493 7.82372,-0.8096 z m 92.23531,7.70974 c -7.84633,-2.90527 -11.65519,-8.75645 -11.65519,-17.90471 0,-14.17139 12.83791,-22.57909 25.61609,-16.77628 9.16817,4.16343 12.97945,15.4308 8.58216,25.3716 -3.64923,8.2497 -13.93423,12.497 -22.54306,9.30939 z m 11.42173,-9.51719 c 2.53757,-2.53757 2.92308,-3.66458 2.92308,-8.54545 0,-4.63611 -0.43057,-6.05295 -2.45455,-8.07692 -7.31045,-7.31046 -17.40468,2.74616 -13.37737,13.32754 2.46328,6.47206 8.25369,7.95 12.90884,3.29484 z m -413.61074,8.69554 c -0.28476,-0.74208 -0.39365,-8.75696 -0.24197,-17.81084 l 0.27579,-16.46162 3.45586,-0.32871 c 2.27287,-0.21619 3.84436,0.20259 4.59078,1.22338 1.01393,1.38665 1.55162,1.33478 5.04414,-0.48653 5.66252,-2.95294 11.92144,-2.13767 15.65325,2.03895 l 2.80892,3.14372 -0.27648,14.7046 -0.27647,14.70459 -4,0 -4,0 -0.2466,-11 c -0.30088,-13.42111 -0.65075,-15.05902 -3.6343,-17.01392 -2.88598,-1.89097 -6.91235,-0.67518 -8.67571,2.6197 -0.64802,1.21083 -1.46288,7.41987 -1.8108,13.79787 l -0.63259,11.59635 -3.75804,0.31084 c -2.46572,0.20396 -3.93608,-0.15313 -4.27578,-1.03838 z m 109.97665,-0.0609 c -0.27192,-0.70862 -0.3703,-8.69611 -0.21862,-17.75 l 0.27579,-16.46157 2.91236,-0.33209 c 1.60179,-0.18265 3.9234,0.20901 5.15913,0.87035 1.83468,0.98189 2.67109,0.90525 4.56015,-0.41791 2.77291,-1.94222 5.86045,-2.07784 8.20895,-0.36057 1.45384,1.06307 1.5494,1.75735 0.612,4.44637 -0.97807,2.80571 -1.60657,3.22288 -5.25833,3.49022 -5.6287,0.41207 -6.66085,2.72557 -6.67952,14.97184 -0.008,5.31752 -0.28788,10.38002 -0.62173,11.25 -0.75627,1.97082 -8.2127,2.21525 -8.95018,0.29341 z m 126.75717,0.0884 c -1.26825,-1.26825 -1.80565,-44.05813 -0.59301,-47.21821 0.47134,-1.22829 2.13013,-1.58179 7.42245,-1.58179 7.91447,0 6.79924,-1.67393 11.90516,17.86915 1.6337,6.25303 3.22424,11.62303 3.53455,11.93333 1.18937,1.18937 2.31438,-1.72901 5.51349,-14.30248 1.8192,-7.15 3.76315,-13.58145 4.31989,-14.2921 0.69084,-0.88184 3.10549,-1.19936 7.60486,-1 l 6.59261,0.2921 0,24.5 0,24.5 -4,0 -4,0 -0.24372,-13.5 c -0.40687,-22.53767 -1.25669,-22.94284 -6.20811,-2.95985 -4.22206,17.03939 -4.18,16.95985 -8.96771,16.95985 -2.17934,0 -4.23268,-0.43728 -4.563,-0.97174 -0.33031,-0.53445 -2.17787,-7.39547 -4.10569,-15.24667 -1.92782,-7.85122 -3.93412,-14.70394 -4.45845,-15.22826 -0.60443,-0.60444 -0.95332,4.53629 -0.95332,14.04667 0,16.08731 -0.37721,17.4 -5,17.4 -1.43,0 -3.14,-0.54 -3.8,-1.2 z m 137.2215,-0.14396 c -0.30933,-0.80611 -0.41821,-2.9673 -0.24196,-4.80265 0.34668,-3.61006 2.05648,-4.51294 6.45544,-3.40887 2.21404,0.55569 2.44434,1.06897 2.1709,4.83856 -0.29662,4.08922 -0.41969,4.22633 -4.06392,4.52776 -2.59684,0.2148 -3.93181,-0.14202 -4.32046,-1.1548 z m 60.02133,0.0556 c -0.27192,-0.70861 -0.3703,-8.69611 -0.21862,-17.75 l 0.27579,-16.46164 2.91236,-0.33209 c 1.60179,-0.18265 3.9234,0.20901 5.15913,0.87035 1.83468,0.98189 2.67109,0.90525 4.56015,-0.41791 2.77291,-1.94222 5.86045,-2.07784 8.20895,-0.36057 1.45384,1.06307 1.5494,1.75735 0.612,4.44637 -0.97807,2.80571 -1.60657,3.22288 -5.25833,3.49022 -5.66821,0.41496 -6.66095,2.69689 -6.67952,15.35363 -0.009,6.46497 -0.4428,10.47806 -1.21474,11.25 -1.60124,1.60124 -7.73369,1.53639 -8.35717,-0.0884 z M 124.61788,827.5198 c -9.53697,-10.062 -28.733344,-31.566 -28.733344,-32.18744 0,-0.32931 2.08685,-2.98432 4.637444,-5.90003 l 4.63744,-5.30129 -2.13744,-2.89104 c -1.17559,-1.59008 -2.13744,-3.26724 -2.13744,-3.72704 0,-0.45979 40.54326,-40.41552 90.09614,-88.79049 l 90.09614,-87.9545 4.34101,0 c 3.58306,0 4.95633,-0.59515 7.86506,-3.40856 l 3.52405,-3.40855 4.01736,2.65855 c 2.20955,1.46221 4.43531,2.65856 4.94614,2.65856 1.28599,0 45.53827,-45.82012 45.9346,-47.56204 0.17628,-0.77477 -4.21122,-8.03341 -9.75,-16.13032 -5.53877,-8.09691 -10.06493,-15.416 -10.05812,-16.26465 0.007,-0.84864 1.58181,-2.55963 3.5,-3.80218 1.91819,-1.24256 3.48762,-2.8955 3.48762,-3.67322 0,-0.77771 -1.77627,-4.71107 -3.94726,-8.74081 -8.9234,-16.56331 -16.51728,-40.13062 -19.59967,-60.82678 -1.9902,-13.36286 -1.99229,-39.27891 -0.004,-52.21996 6.1982,-40.34616 25.79948,-78.46686 55.43677,-107.81379 28.00056,-27.72625 68.20019,-45.22406 115.00687,-50.05934 15.97368,-1.65013 46.39823,-0.66238 61.10751,1.9839 29.47067,5.30194 51.37366,13.49442 70.98721,26.55169 34.67275,23.08258 63.84511,66.94396 75.52751,113.5575 7.49171,29.89239 7.44689,64.58308 -0.12128,93.86309 -7.06123,27.31875 -24.24293,59.16943 -43.27667,80.2244 -18.73841,20.72829 -54.66875,42.99631 -85.89866,53.23616 -23.79317,7.80146 -32.89019,9.18224 -60.21811,9.14019 -20.56953,-0.0317 -24.80936,-0.31854 -34,-2.30063 -14.71556,-3.17362 -29.5214,-8.40671 -43.23677,-15.28196 l -11.73678,-5.88341 -2.57769,4.08333 c -1.41773,2.24583 -3.11118,3.87122 -3.76323,3.61198 -0.65204,-0.25923 -8.11818,-4.79625 -16.59142,-10.08225 -8.47346,-5.286 -15.92746,-9.6109 -16.56468,-9.6109 -1.7801,0 -47.52965,46.53637 -47.52965,48.34709 0,0.87617 1.35,2.59113 3,3.81103 1.65,1.2199 3,2.6769 3,3.23778 0,0.56087 -1.67342,2.73351 -3.71871,4.82808 l -3.71871,3.80831 1.87363,3.47912 c 1.30136,2.41647 1.59472,4.0151 0.96045,5.23386 -0.50225,0.9651 -40.83123,41.55808 -89.61996,90.20661 l -88.70679,88.45188 -3.60363,-1.71845 c -3.99128,-1.90331 -4.0892,-1.87229 -10.46628,3.31469 -2.475,2.01312 -5.02086,3.96249 -5.65747,4.33194 -0.66924,0.38838 -3.45708,-1.75447 -6.60919,-5.08011 z M 536.20402,585.28928 c 74.00325,-12.71499 131.1142,-69.95856 141.78557,-142.11479 1.60658,-10.86316 1.61749,-36.16442 0.02,-46.40648 -11.00837,-70.57871 -64.26783,-126.03512 -135.51261,-141.10248 -23.72422,-5.01737 -56.09334,-4.34272 -79.79246,1.66307 -33.66822,8.53215 -65.73216,27.93932 -87.86459,53.18136 -59.88267,68.29619 -54.96563,168.45603 11.30278,230.2368 13.10662,12.21905 25.11287,20.50686 41.24183,28.46886 34.41984,16.99122 71.55462,22.47638 108.81948,16.07366 z m -45.81948,-8.61707 c -20.97798,-2.99027 -30.72465,-5.36272 -45.79306,-11.14653 -6.17958,-2.37195 -7.27116,-3.24638 -12.0871,-9.68255 -19.41372,-25.9451 -29.19465,-50.21811 -32.55298,-80.78571 -1.79561,-16.34366 -1.45193,-21.98783 1.76959,-29.06137 5.42789,-11.91809 11.72783,-16.67541 23.16355,-17.49166 11.15801,-0.79644 21.45773,1.78888 31.14011,7.81644 16.38462,10.19987 21.54914,14.38064 36.35989,29.43398 17.70978,17.99984 21.79678,20.58844 33.62663,21.29827 9.26167,0.55572 14.45084,-0.93235 27.78988,-7.96916 13.82042,-7.29075 20.63175,-12.17541 29.59825,-21.22599 9.15966,-9.24557 14.54118,-18.45161 17.0711,-29.2032 3.22757,-13.71638 0.0171,-42.21608 -6.13334,-54.44591 -7.49266,-14.89882 -22.53642,-25.42284 -43.99733,-30.77881 -16.69181,-4.16573 -22.16908,-4.662 -51.45519,-4.662 -27.8835,0 -28.70783,0.0582 -38.10779,2.68843 -5.28428,1.47863 -15.40928,5.21947 -22.5,8.31295 -26.25522,11.45443 -39.21556,14.64474 -59.89221,14.74297 -16.3287,0.0776 -22.5,-0.8441 -22.5,-3.36039 0,-2.80169 6.87227,-15.99385 13.74435,-26.38396 15.51624,-23.45947 37.82244,-42.86774 63.62408,-55.35831 53.64789,-25.97096 116.93304,-21.51068 166.17377,11.71177 34.76956,23.45884 57.72721,57.6474 66.57697,99.14654 2.96214,13.89032 3.27728,42.59308 0.6228,56.72357 -3.6839,19.61032 -13.12678,42.90713 -23.41849,57.77643 l -4.84502,7 -23.67407,5 -23.67406,5 -10.1589,7 -10.15889,7 -8.31013,17.19412 -8.31013,17.19411 -5.38526,1.56555 c -10.95017,3.1833 -22.69549,4.70848 -38.80702,5.03929 -9.075,0.18632 -17.85,0.14634 -19.5,-0.0889 z m 74.93659,-13.00757 c 0.38991,-1.55352 3.03868,-7.3354 5.88617,-12.84863 4.98017,-9.6425 5.50539,-10.26239 13.79818,-16.28535 l 8.62093,-6.26129 17.11459,-3.50068 c 9.41302,-1.92537 17.34609,-3.50068 17.62906,-3.50068 3.94494,0 -11.25289,14.91478 -26.08672,25.60089 -8.09466,5.83129 -29.42679,17.28435 -35.28497,18.94422 -2.20947,0.62604 -2.33367,0.46694 -1.67724,-2.14847 z m -76.22031,218.35337 c -1.44871,-3.4375 -7.94183,-16.825 -14.42916,-29.75 l -11.79515,-23.5 -12.24598,-11.14524 c -17.55595,-15.97789 -28.01823,-24.63666 -36.35341,-30.08669 -7.80902,-5.10601 -10.27408,-8.23425 -20.27225,-25.7261 -5.00488,-8.75606 -6.02642,-11.54197 -4.23224,-11.54197 0.48846,0 16.79354,9.225 36.23352,20.5 19.43999,11.275 35.86921,20.5 36.50937,20.5 2.78716,0 64.88108,-13.11206 65.62718,-13.85816 0.45521,-0.45521 1.10287,-11.63346 1.43926,-24.84057 l 0.61161,-24.01292 -3.15451,-2.33223 c -4.37495,-3.23454 -3.96552,-4.6168 1.59548,-5.38639 21.48389,-2.97321 45.27373,-10.1476 65.1435,-19.64553 6.81643,-3.25831 12.98231,-5.9242 13.70196,-5.9242 0.71965,0 2.74821,2.09261 4.50791,4.65025 5.24101,7.61754 14.39056,17.92881 30.47974,34.34975 14.20756,14.50053 19.43524,21.42727 19.40372,25.71016 -0.0294,3.98757 -21.98881,94.71223 -23.19042,95.81032 -1.01055,0.9235 -143.03868,32.47952 -146.18463,32.47952 -0.41882,0 -1.9468,-2.8125 -3.3955,-6.25 z m -80.21628,-14.90456 c -55.73575,-17.54699 -64.08079,-19.92706 -68.25,-19.46551 -4.44493,0.49208 -4.75,0.3778 -4.75,-1.77915 0,-5.59018 4.62581,-9.55726 23.83517,-20.44098 7.3446,-4.16133 16.13386,-12.53602 22.66483,-21.59579 2.75,-3.81481 6.19957,-7.81185 7.66572,-8.88233 l 2.66572,-1.94632 7.83428,4.21455 c 24.94813,13.42118 46.78403,38.61014 68.85218,79.4249 4.34348,8.03322 5.29216,10.71333 3.7321,10.5436 -0.4125,-0.0449 -29.325,-9.07771 -64.25,-20.07296 z m -191.75,17.93983 c -3.55108,-0.54538 -6.25,-1.46422 -6.25,-2.12779 0,-1.64409 71.21341,-72.65748 72.86213,-72.65748 0.88445,0 1.11257,0.60505 0.65978,1.75 -2.52248,6.3785 -2.13903,7.13451 10.01716,19.75 l 11.56311,12 -0.4053,7.31849 c -0.24941,4.50352 -0.94217,7.82234 -1.80109,8.62839 -0.76768,0.72044 -17.28176,6.98962 -36.69794,13.93151 -37.27239,13.32603 -37.34455,13.34251 -49.94785,11.40688 z M 70.397213,764.90802 c -17.17168,-2.45229 -22.05123,-3.47302 -22.27912,-4.66049 -0.39088,-2.03674 14.64723,-69.13095 15.80813,-70.52976 0.50119,-0.60389 5.34595,-3.85821 10.76613,-7.23181 5.420183,-3.37361 13.785413,-9.64026 18.589393,-13.92589 19.294424,-17.21254 24.256814,-20.26023 52.668434,-32.34668 20.66651,-8.79164 35.63878,-16.64623 50.38818,-26.43408 l 12.87939,-8.54689 2.14785,2.01779 c 1.18131,1.10979 3.01884,1.99582 4.08339,1.96897 1.06455,-0.0269 10.26055,-3.80543 20.43555,-8.3968 13.03577,-5.88229 18.97507,-8.09506 20.10843,-7.49175 0.88463,0.47091 3.80963,2.86133 6.5,5.31204 l 4.89157,4.45582 -10,9.88167 c -5.5,5.43493 -38.35,37.51909 -73,71.29814 -34.65,33.77905 -69.1253,67.39544 -76.61178,74.70308 -7.48648,7.30765 -14.011484,13.23713 -14.500004,13.17665 -0.48852,-0.0605 -10.78251,-1.52301 -22.875543,-3.25 z M 313.16056,750.51801 c 0.47082,-4.88845 3.48866,-11.70928 20.14099,-45.52209 18.74031,-38.05247 19.78519,-39.91165 24.16667,-43 2.51871,-1.77535 5.0402,-3.22791 5.60332,-3.22791 0.56311,0 4.19174,4.60502 8.06362,10.23337 5.76569,8.38131 7.11806,11.09604 7.47236,15 0.43042,4.74275 0.39152,4.81349 -7.76635,14.12184 -4.50941,5.14536 -9.83191,10.30803 -11.82778,11.47258 -7.75707,4.52615 -26.73849,17.58766 -28.80404,19.82067 -3.38369,3.65802 -7.3395,12.30776 -8.71689,19.06025 -1.26966,6.22438 -2.47338,7.55269 -6.99681,7.721 -1.70228,0.0634 -1.83418,-0.49776 -1.33509,-5.67971 z m -14.25879,-24.35067 -8.34578,-9.10067 3.34345,-10.64933 3.34345,-10.64933 22.85063,-22.5 c 12.56785,-12.375 22.83722,-23.14305 22.82083,-23.929 -0.0164,-0.78594 -0.5857,-2.96628 -1.26511,-4.84517 -1.18106,-3.26615 -1.09111,-3.54499 2.04837,-6.35012 1.80602,-1.61366 3.71912,-2.66483 4.25134,-2.3359 1.04924,0.64846 10.93559,15.02726 10.93559,15.90482 0,0.29422 -2.3625,2.10389 -5.25,4.02149 l -5.25,3.48655 -18.98948,38.02367 c -12.96497,25.96048 -19.49042,38.02366 -20.56849,38.02366 -0.86847,0 -5.33463,-4.0953 -9.9248,-9.10067 z M 424.38454,661.6713 c -21.45,-12.40427 -39.52981,-23.08199 -40.17735,-23.72826 -0.64754,-0.64627 -3.6788,-6.93311 -6.73613,-13.97076 -3.05733,-7.03766 -7.02752,-15.48468 -8.82265,-18.77118 l -3.26387,-5.97543 5.76887,-5.58148 c 5.43022,-5.25381 5.89985,-5.49783 8,-4.15665 12.35775,7.89178 33.67507,20.77885 34.36156,20.77277 0.47826,-0.004 1.89551,-1.80424 3.14943,-4 1.25392,-2.19577 2.72925,-3.9923 3.27852,-3.9923 0.54926,0 3.60297,1.31466 6.78603,2.92146 19.57174,9.87978 50.83373,17.0128 74.7648,17.05902 l 10.10921,0.0195 4.89079,4.23609 c 2.68993,2.32983 5.25933,4.69233 5.70977,5.25 0.45043,0.55766 0.59557,9.54609 0.32254,19.97428 -0.40921,15.62875 -0.77062,19.16086 -2.05683,20.10136 -0.85821,0.62754 -13.37835,3.48385 -27.82254,6.34736 -14.44418,2.8635 -26.93715,5.39561 -27.76215,5.62689 -0.825,0.23131 -19.05,-9.72841 -40.5,-22.13269 z m -355.500007,4.62383 c 0,-1.19374 2.925,-15.22423 6.5,-31.17887 3.575003,-15.95463 6.500003,-29.85046 6.500003,-30.87962 0,-1.02916 -9.225003,-35.36912 -20.500003,-76.31102 -11.275,-40.9419 -20.5,-75.56771 -20.5,-76.94624 0,-1.37851 10.57434,-34.45142 23.49854,-73.49532 L 87.881616,306.49512 60.883073,234.30103 c -14.8492,-39.70675 -26.99854,-72.83284 -26.99854,-73.61355 0,-1.81114 0.24313,-1.79952 11.26745,0.53882 74.196047,15.7375 123.378657,26.32893 123.982557,26.69951 0.4125,0.25313 0.75,1.11672 0.75,1.9191 0,0.80237 -5.20324,19.069 -11.56276,40.59251 -9.44879,31.97905 -11.32275,39.35456 -10.25,40.34195 0.72202,0.66457 12.11276,5.12626 25.31276,9.91488 13.2,4.78861 24.58302,9.27578 25.2956,9.97148 0.97413,0.95105 15.22591,61.52359 22.63917,96.22042 0.63972,2.99411 -0.52906,4.38274 -29.38428,34.91142 -16.52777,17.48631 -30.03715,32.50815 -30.02085,33.38186 0.0163,0.87372 5.4163,7.8561 12,15.5164 6.5837,7.66031 11.97036,14.49626 11.97036,15.19101 0,0.69475 -7.65,8.31749 -17,16.93942 -9.35,8.62193 -16.98346,16.18598 -16.96324,16.80899 0.13048,4.0215 2.90412,14.92239 4.16783,16.38033 9.29967,10.72907 40.79541,49.57795 40.79541,50.3197 0,1.2416 -23.12062,16.49471 -33,21.77073 -4.125,2.20292 -11.65575,5.44463 -16.735,7.20378 -15.81628,5.47783 -32.08541,15.90278 -49.278484,31.57671 -9.27926,8.45937 -17.85298,15.04256 -25.236523,19.37743 l -3.75,2.20163 0,-2.17043 z M 654.77917,620.51801 C 637.85902,603.2285 625.3219,587.16738 626.06918,583.7381 c 0.17345,-0.79594 9.31536,-6.36752 20.31536,-12.38127 15.04377,-8.22451 20.27063,-10.64352 21.09208,-9.76147 0.60064,0.64496 2.54507,10.84766 4.32096,22.67265 l 3.22888,21.5 -3.15371,13.25 c -1.91353,8.0395 -3.63365,13.25 -4.37416,13.25 -0.67124,0 -6.39498,-5.2875 -12.71942,-11.75 z M 216.46335,596.39553 c -0.29657,-0.47987 5.60597,-6.66737 13.11676,-13.75 7.51078,-7.08264 16.99424,-16.70252 21.07433,-21.37752 8.29985,-9.51001 11.04389,-11.26693 21.95622,-14.05783 12.96072,-3.31479 22.71912,-2.02423 31.2117,4.12775 3.34853,2.42566 5.10291,4.90304 8.16365,11.528 2.14419,4.6411 3.89853,9.23307 3.89853,10.20438 0,1.67986 -9.74625,12.19771 -11.30289,12.19771 -0.40699,0 -2.55097,-1.19845 -4.76439,-2.66322 l -4.0244,-2.66322 -4.34958,4.26878 c -4.0276,3.9528 -4.63612,4.22037 -8.22065,3.61477 -3.43239,-0.57989 -4.20205,-0.30854 -6.79167,2.39443 -1.60633,1.67665 -3.322,3.04845 -3.81259,3.04845 -0.4906,0 -4.26744,-2.94389 -8.39299,-6.54197 -5.33804,-4.65557 -8.03114,-6.37371 -9.33954,-5.95844 -1.0112,0.32094 -9.82851,4.16484 -19.59402,8.54197 -9.76551,4.37714 -17.87557,7.95844 -18.02236,7.95844 -0.14679,0 -0.50954,-0.39262 -0.80611,-0.87248 z m -34.57666,-40.10638 c -11.27381,-13.68668 -20.79146,-25.92803 -21.15032,-27.203 -2.07427,-7.36959 -2.05066,-7.40388 17.14817,-24.90124 9.9,-9.02262 18,-16.94569 18,-17.60681 0,-0.66112 -5.625,-7.73146 -12.5,-15.71186 -6.875,-7.9804 -12.5,-14.97855 -12.5,-15.55143 0,-0.57289 12.86738,-14.65154 28.59417,-31.2859 15.72679,-16.63436 28.93303,-30.92302 29.34718,-31.75259 0.76138,-1.52505 -22.30214,-105.78345 -23.70439,-107.15543 -0.40533,-0.39658 -10.80027,-4.36208 -23.09988,-8.81221 -24.85128,-8.99147 -26.13708,-9.55332 -26.13708,-11.42067 0,-2.27066 21.12499,-73.07249 22.10637,-74.09099 0.60334,-0.62616 3.90475,-0.35981 9.29641,0.75 4.59844,0.94655 9.40354,1.72099 10.67801,1.72099 1.90088,0 54.514,-15.43387 126.37261,-37.07096 l 12.95339,-3.90035 22.04661,6.95427 c 104.35268,32.91648 127.28991,40.01704 129.26862,40.01704 1.2498,0 27.81113,-8.81254 59.02517,-19.58341 88.84001,-30.65559 90.15556,-31.09473 91.20612,-30.44545 1.42225,0.879 49.7199,166.37279 50.56964,173.27886 0.94225,7.6579 -0.61321,7.49514 -4.64192,-0.48568 -11.18752,-22.16235 -31.22783,-47.00835 -50.38103,-62.46247 -23.50718,-18.96719 -53.86042,-31.09469 -92.5,-36.95796 -16.24617,-2.46523 -51.08132,-2.44268 -67.5,0.0437 -52.26528,7.91484 -93.98043,29.93293 -123.36105,65.11242 -24.18117,28.95382 -40.36191,63.76717 -46.14467,99.28164 l -1.18566,7.28165 -5.15431,2.57696 c -3.22871,1.61423 -8.60165,6.10525 -14.38189,12.02123 -7.4344,7.60898 -9.98423,11.03719 -13.12126,17.64139 -7.56084,15.91734 -11.40318,30.38836 -13.19559,49.69713 -3.3387,35.96633 -8.15062,54.48182 -18.26284,70.27249 -8.21712,12.83138 -30.75665,34.81795 -35.55274,34.68052 -0.90199,-0.0258 -10.86402,-11.24519 -22.13784,-24.93187 z m 92.49785,-29.74038 c -3.42998,-0.83561 -5.29566,-3.26051 -6.55842,-8.52427 -1.41966,-5.91783 -0.92838,-14.99223 2.16888,-40.06068 1.79268,-14.50957 2.72869,-18.7606 5.99179,-27.2128 2.12696,-5.50935 6.0803,-13.60935 8.7852,-18 5.25153,-8.52443 14.08968,-18.48301 16.4035,-18.48301 1.09192,0 1.53515,2.61408 1.99544,11.76858 0.32544,6.47272 1.35302,16.23488 2.28351,21.69369 1.27176,7.46092 1.43058,10.68392 0.63968,12.98142 -2.35245,6.83367 -2.47938,20.54325 -0.29495,31.85708 3.01639,15.62277 2.83787,18.27144 -1.67003,24.77844 -5.20307,7.51043 -10.2473,9.95805 -20.20649,9.80479 -4.14596,-0.0638 -8.43811,-0.33526 -9.53811,-0.60324 z M 158.87807,154.33368 c -8.11145,-2.46739 -12.84002,-7.71344 -13.26152,-14.7128 l -0.23201,-3.85287 5.2273,0.1359 c 7.21197,0.18749 10.03652,1.04461 10.7393,3.25888 1.40352,4.42208 10.81039,5.13077 15.68713,1.18182 1.95206,-1.58068 2.35406,-3.00056 2.68066,-9.46807 0.40537,-8.0275 -0.2265,-9.04271 -3.42704,-5.50615 -4.40858,4.87142 -13.46095,6.47262 -19.35664,3.42384 -4.53502,-2.34515 -9.97588,-9.48516 -11.8109,-15.49937 -2.4536,-8.04162 -2.11761,-22.790897 0.68759,-30.183537 5.28403,-13.925205 19.82509,-19.19868 30.12182,-10.924005 2.10843,1.694375 4.055,3.080695 4.32572,3.080695 0.27072,0 0.63461,-1.23751 0.80864,-2.750005 0.30598,-2.659286 0.51434,-2.75 6.31642,-2.75 l 6,0 -0.0126,33.500002 c -0.009,24.29159 -0.3643,34.67184 -1.29208,37.76313 -1.77175,5.90335 -6.33745,10.75656 -11.9035,12.65311 -4.82396,1.64368 -16.82655,2.00966 -21.29829,0.64942 z m 15.90049,-39.62995 c 3.66458,-3.08352 5.10039,-7.73035 5.07844,-16.435713 -0.0268,-10.643584 -4.84445,-18.000004 -11.78794,-18.000004 -2.61787,0 -6.88753,3.525 -8.83781,7.29642 -1.9785,3.82601 -2.2373,16.559847 -0.44585,21.937947 2.5315,7.59978 10.18476,10.0888 15.99316,5.20135 z M 44.442353,130.77589 c -5.704,-2.03196 -8.6801,-4.57532 -11.21719,-9.58614 -2.62417,-5.18284 -4.09923,-14.56314 -2.53589,-16.12648 0.57971,-0.57971 3.65303,-1.10829 6.8296,-1.17464 l 5.77559,-0.12062 0.77002,4.40892 c 1.26767,7.25835 6.32616,10.75278 12.26604,8.47343 3.70808,-1.42292 4.0431,-4.17295 4.55401,-37.382347 l 0.5,-32.500005 6.40894,-0.301843 c 4.45064,-0.209612 6.66126,0.09595 7.23469,1 1.118953,1.764095 1.047073,49.152262 -0.091,59.965275 -0.50148,4.7649 -1.66887,10.1649 -2.59419,12 -5.28233,10.47604 -16.9832,15.23363 -27.90067,11.34445 z m 53.942183,0.0353 c -13.67328,-4.98888 -15.27101,-26.02794 -2.47243,-32.557273 2.10431,-1.07355 7.346464,-2.91144 11.649234,-4.08422 10.25355,-2.794744 11.32626,-3.429094 11.30789,-6.686904 -0.0185,-3.27421 -0.79012,-4.54982 -3.66895,-6.06512 -4.26865,-2.24684 -8.33094,-1.41334 -11.98265,2.45859 -3.18806,3.38034 -3.679994,3.56678 -7.786314,2.951 -2.41078,-0.36153 -4.89143,-1.26964 -5.51255,-2.01806 -1.84572,-2.22394 2.50512,-10.20761 7.2897,-13.376425 3.480224,-2.304936 5.249314,-2.708146 13.099834,-2.98571 8.01884,-0.283514 9.59899,-0.04192 13.56327,2.073772 7.91762,4.225533 8.38457,5.876483 9.11781,32.23745 0.35201,12.65534 0.97491,24.02219 1.38422,25.25968 0.71728,2.16859 0.52373,2.25 -5.34938,2.25 -5.34251,0 -6.289,-0.29826 -7.67912,-2.41985 l -1.58554,-2.41984 -4.68751,2.88756 c -5.82447,3.58793 -11.40566,4.4225 -16.687514,2.49536 z m 17.100004,-13.94322 c 3.05714,-3.05714 3.4,-3.96471 3.4,-9 0,-6.45445 -0.44621,-6.66085 -8.57186,-3.96497 -9.28764,3.0814 -12.130974,8.75305 -6.97359,13.91042 3.61235,3.61236 7.92322,3.27678 12.14545,-0.94545 z m 210.14052,13.97069 c -4.89243,-1.74581 -6.47594,-3.13175 -8.81361,-7.71395 -2.27505,-4.45947 -2.53711,-12.46056 -0.56288,-17.18555 1.94783,-4.66182 6.88499,-8.411083 13.45247,-10.215743 16.39112,-4.504094 16.69722,-4.656524 16.53305,-8.233034 -0.19484,-4.24468 -1.74956,-6.01923 -5.9667,-6.81037 -4.32414,-0.81121 -8.7155,0.97247 -10.47132,4.25326 -1.25817,2.35091 -1.7139,2.48591 -6.32624,1.87407 -6.45818,-0.85671 -6.9024,-1.20382 -6.17774,-4.82714 0.89527,-4.47635 5.28579,-9.669042 9.97636,-11.799119 6.12292,-2.780529 17.82162,-2.613502 23.59566,0.336884 8.23747,4.209135 8.42686,4.837415 9.21543,30.570442 0.38225,12.47376 0.99582,24.14206 1.3635,25.92956 l 0.6685,3.25 -6.13825,0 c -5.62734,0 -6.21737,-0.20809 -7.08875,-2.5 -1.16903,-3.07478 -1.36681,-3.07843 -5.31672,-0.0982 -3.05481,2.30485 -9.5356,4.62913 -12.68328,4.54873 -0.825,-0.0211 -3.19176,-0.642 -5.25948,-1.37984 z m 15.94811,-12.52241 c 3.37217,-2.05615 5.29532,-6.69505 5.30579,-12.79828 0.007,-3.83929 -1.00219,-4.02324 -9.06292,-1.65263 -7.16304,2.1066 -8.9315,3.80102 -8.9315,8.55762 0,7.15989 6.02329,9.95743 12.68863,5.89329 z m 41.31188,12.8782 c -3.99073,-1.67098 -6.92048,-4.98293 -7.59676,-8.58779 -0.34477,-1.83781 -0.91416,-11.53405 -1.26531,-21.54719 l -0.63844,-18.205707 -2.5,-0.58796 c -2.32096,-0.54586 -2.5,-1.01443 -2.5,-6.54288 0,-5.752896 0.0933,-5.96565 2.75,-6.271337 2.50874,-0.288663 2.7512,-0.683444 2.76365,-4.5 0.008,-2.300968 0.27586,-5.16115 0.59634,-6.35596 0.54611,-2.036058 10.19126,-9.327618 12.33841,-9.327618 0.55238,0 1.10393,4.249794 1.26539,9.75 l 0.28621,9.75 3.98702,0.324496 c 4.70276,0.382748 5.48235,1.332006 5.48235,6.675509 0,5.34349 -0.77959,6.29275 -5.48235,6.6755 l -3.98702,0.3245 -0.27548,15.768114 c -0.16506,9.447113 0.13679,16.538483 0.75297,17.689813 0.67311,1.25773 2.32311,2.02888 4.77548,2.23188 l 3.74703,0.31019 0.29618,5.6253 c 0.22778,4.32604 -0.0581,5.76124 -1.23782,6.21394 -3.24134,1.24382 -11.16961,1.5872 -13.55785,0.58721 z m 38.34485,-0.0735 c -6.11609,-1.37333 -12.72045,-7.62488 -15.4613,-14.63534 -1.80888,-4.62671 -2.23537,-7.7209 -2.23537,-16.21757 0,-12.436507 2.23077,-19.509757 8.03923,-25.490547 4.60637,-4.743017 8.84886,-6.515282 15.52996,-6.487503 13.32211,0.05539 22.07139,9.842663 23.65926,26.466117 0.38304,4.01014 0.52989,7.790833 0.32632,8.401543 -0.25035,0.75104 -5.45635,1.11039 -16.08679,1.11039 -9.89593,0 -16.11564,0.39896 -16.79393,1.07725 -1.2799,1.2799 -0.17456,7.14475 1.82834,9.70109 2.51896,3.215 4.34174,4.15798 8.09892,4.18985 3.72502,0.0316 4.79879,-0.69209 8.55155,-5.76339 1.6108,-2.17676 1.97293,-2.23624 7.0173,-1.15237 2.92537,0.62855 5.54427,1.73027 5.81978,2.44825 0.80656,2.10186 -3.2757,9.05456 -7.2303,12.31427 -5.65641,4.66249 -12.46699,5.96814 -21.06297,4.03797 z m 16.05813,-37.696773 c 1.10495,-1.787844 -1.60163,-8.145084 -4.50947,-10.591874 -3.92082,-3.29915 -7.10048,-3.24517 -10.93999,0.18572 -2.20579,1.97104 -3.23895,3.95384 -3.64744,7 l -0.56993,4.250004 9.57265,0 c 5.26496,0 9.80734,-0.37973 10.09418,-0.84385 z m 169.41706,37.497163 c -13.09796,-3.662 -20.81411,-17.25604 -19.52212,-34.393353 1.29288,-17.149084 11.58619,-28.185198 26.33738,-28.237997 11.46152,-0.04102 21.40694,7.648173 24.83855,19.203663 1.95406,6.580034 1.95406,17.968717 0,24.548747 -4.25182,14.31745 -18.20459,22.63915 -31.65381,18.87894 z m 13.06516,-14.28581 c 3.73335,-2.61494 6.06754,-8.994 6.09233,-16.649623 0.0261,-8.054744 -1.56036,-12.347194 -5.91879,-16.014564 -13.90533,-11.700566 -26.8128,17.397227 -13.77199,31.046697 2.51138,2.62859 3.88543,3.25 7.1864,3.25 2.24473,0 5.13015,-0.73464 6.41205,-1.6325 z M 235.3416,129.01672 c -0.2641,-0.68823 -0.36248,-19.47573 -0.21862,-41.750007 l 0.26156,-40.498705 10.26788,-0.285181 c 8.99594,-0.249853 10.35066,-0.06948 10.93606,1.456035 0.36749,0.957668 3.17607,12.786 6.24128,26.285181 3.06521,13.49918 6.01899,24.543964 6.56395,24.543964 0.54496,0 3.54487,-11.419044 6.66647,-25.375644 3.1216,-13.956599 6.08628,-25.786273 6.58817,-26.28816 0.50188,-0.501888 5.37284,-0.782849 10.82435,-0.624359 l 9.91184,0.288164 0,41.500005 0,41.499997 -6.25,0.29772 -6.25,0.29771 -0.0703,-27.29771 c -0.0677,-26.293187 -0.77706,-34.802422 -2.39073,-28.678417 -0.37961,1.44061 -3.24367,14.49061 -6.36458,28.999997 l -5.67439,26.3807 -6.39843,0.30157 c -3.51914,0.16587 -6.75885,-0.0591 -7.19935,-0.5 -0.44051,-0.44085 -3.31311,-12.72657 -6.38355,-27.30157 -3.07045,-14.575007 -5.85983,-27.399997 -6.19862,-28.499997 -1.53839,-4.994932 -2.18306,3.38658 -2.24976,29.249997 l -0.0703,27.25 -6.03138,0 c -3.906,0 -6.2006,-0.44094 -6.51156,-1.2513 z m 227.01427,0.0372 c -0.27653,-0.72062 -0.38321,-14.35475 -0.23706,-30.298053 l 0.26573,-28.987859 6,0 c 5.46087,0 6.02871,0.202172 6.31955,2.25 0.41127,2.895775 0.73881,2.844955 4.83323,-0.75 3.71593,-3.262627 8.24745,-3.913843 12.80017,-1.839485 2.97082,1.353598 3.12119,2.798213 0.95345,9.16018 -1.8929,5.55534 -2.43933,5.99748 -5.82248,4.71121 -3.61655,-1.37501 -7.12436,0.20644 -9.26085,4.17514 -1.46065,2.71326 -1.86518,6.725784 -2.2979,22.792957 l -0.52517,19.5 -6.26294,0.29805 c -4.46404,0.21245 -6.40736,-0.0783 -6.76573,-1.01217 z m 67.23629,0.58842 c -0.86046,-0.8605 -0.95729,-79.560116 -0.10063,-81.792545 0.53006,-1.381311 3.63519,-1.581787 24.5,-1.581787 l 23.89301,0 0,6.975821 0,6.975821 -16.75,0.274179 -16.75,0.274179 0,9.5 0,9.500005 14.23782,0.27738 c 16.14312,0.3145 15.73805,0.0646 15.07797,9.30283 l -0.31579,4.419794 -12.5,0.24475 c -18.85613,0.36922 -16.90512,-1.7281 -17.22644,18.518383 l -0.27356,17.23686 -6.54238,0.29097 c -3.5983,0.16002 -6.8608,-0.0275 -7.25,-0.41668 z m 121.52772,-29.62432 0.26466,-30.250012 5.5,0 c 4.94236,0 5.5324,0.228127 5.81955,2.25 0.42887,3.019745 1.75035,2.833945 5.3343,-0.75 2.40575,-2.405753 3.85419,-3 7.31229,-3 2.64005,0 5.12687,0.678624 6.41289,1.75 2.0453,1.703926 2.05838,1.894804 0.49694,7.250005 -2.01568,6.91309 -2.41285,7.31666 -5.897,5.992 -4.33051,-1.64646 -7.97627,0.30145 -10.01223,5.34951 -1.27381,3.15833 -1.80761,8.668074 -2.21943,22.908487 l -0.54223,18.75 -6.3672,0 -6.36721,0 0.26467,-30.24999 z m -328.03103,-48.500012 0.29569,-6.75 5,0 5,0 0.29569,6.75 0.29569,6.75 -5.59138,0 -5.59138,0 0.29569,-6.75 z m 21,0 0.29569,-6.75 5,0 5,0 0.29569,6.75 0.29569,6.75 -5.59138,0 -5.59138,0 0.29569,-6.75 z m 253.20751,5.380801 c -0.28898,-0.75306 -0.38735,-3.79056 -0.21862,-6.75 l 0.3068,-5.380801 4.3239,-0.311109 c 2.37815,-0.17111 4.96565,0.22149 5.75,0.872445 1.44852,1.202157 1.96546,8.369545 0.81911,11.356877 -0.79721,2.077507 -10.19573,2.259456 -10.98119,0.212588 z m 20.79249,-5.380801 0.29569,-6.75 4.3239,-0.311109 c 5.5868,-0.401975 7.1761,1.004762 7.1761,6.351766 0,6.889056 -0.50862,7.459343 -6.65268,7.459343 l -5.4387,0 0.29569,-6.75 z"
     id="path5803"
     style="fill:#070707" />
</svg>
