<?xml version="1.0" encoding="UTF-8" standalone="no"?>
<svg
   xmlns:dc="http://purl.org/dc/elements/1.1/"
   xmlns:cc="http://creativecommons.org/ns#"
   xmlns:rdf="http://www.w3.org/1999/02/22-rdf-syntax-ns#"
   xmlns:svg="http://www.w3.org/2000/svg"
   xmlns="http://www.w3.org/2000/svg"
   xml:space="preserve"
   enable-background="new 0 0 128 128"
   viewBox="0 0 215.90588 76.589844"
   height="76.589844"
   width="215.90588"
   y="0px"
   x="0px"
   id="Layer_1"
   version="1.1"><metadata
   id="metadata4656"><rdf:RDF><cc:Work
       rdf:about=""><dc:format>image/svg+xml</dc:format><dc:type
         rdf:resource="http://purl.org/dc/dcmitype/StillImage" /><dc:title></dc:title></cc:Work></rdf:RDF></metadata><defs
   id="defs4654" />

<g
   id="g4742"><path
     style="fill:#000000;stroke:none;stroke-width:1.06374454"
     d="M 0,0 V 19.275391 L 17.019531,36.085938 V 15.957031 h 19.44336 L 20.300781,0 Z M 2.4570312,2.2558594 H 19.164062 L 30.587891,13.533203 H 14.486328 Z"
     id="polygon4645" /><path
     style="fill:#000000;stroke:none;stroke-width:1.06374454"
     d="m 25.529297,24.466797 v 19.580078 l 32.476562,32.542969 h 20.710938 v -18.6875 L 44.544922,24.466797 Z M 27.75,26.664062 h 15.6875 l 32.822266,32.113282 v 15.55664 z"
     id="polygon4647" /></g>

<g
   id="text4669"
   style="font-style:normal;font-weight:normal;font-size:32.43655777px;line-height:28.38199043px;font-family:sans-serif;letter-spacing:0px;word-spacing:0px;fill:#000000;fill-opacity:1;stroke:none;stroke-width:0.81091392"
   aria-label="
I do too"><path
     id="path4727"
     style="font-style:normal;font-variant:normal;font-weight:normal;font-stretch:normal;font-size:50.42553711px;line-height:28.38199043px;font-family:Trueno;-inkscape-font-specification:Trueno;letter-spacing:0px;stroke:none;stroke-width:0.81091392"
     d="m 97.484926,76.305011 h 3.827514 V 53.59942 h -3.827514 z" /><path
     id="path4729"
     style="font-style:normal;font-variant:normal;font-weight:normal;font-stretch:normal;line-height:28.38199043px;font-family:Trueno;-inkscape-font-specification:Trueno;letter-spacing:0px;stroke:none;stroke-width:0.81091392"
     d="m 113.81825,67.612013 c 0,5.254722 3.30853,8.85518 8.27133,8.85518 2.7571,0 4.83304,-1.102843 6.06563,-3.113909 v 2.951727 h 3.73021 V 52.237085 h -3.73021 v 9.79584 c -1.26502,-2.011066 -3.34096,-3.146346 -6.13051,-3.146346 -4.86548,0 -8.20645,3.535585 -8.20645,8.725434 z m 3.73021,0.129746 c 0.0324,-3.308529 2.20568,-5.676397 5.31959,-5.676397 3.11391,0 5.28716,2.335432 5.28716,5.676397 0,3.276093 -2.17325,5.611525 -5.28716,5.611525 -3.14634,0 -5.28716,-2.335432 -5.31959,-5.611525 z" /><path
     id="path4731"
     style="font-style:normal;font-variant:normal;font-weight:normal;font-stretch:normal;line-height:28.38199043px;font-family:Trueno;-inkscape-font-specification:Trueno;letter-spacing:0px;stroke:none;stroke-width:0.81091392"
     d="m 135.92833,67.676886 c 0,5.189849 3.66533,8.757871 9.01736,8.757871 5.3196,0 8.98493,-3.568022 8.98493,-8.757871 0,-5.222286 -3.66533,-8.75787 -8.98493,-8.75787 -5.35203,0 -9.01736,3.535584 -9.01736,8.75787 z m 3.7302,0.03244 c 0,-3.308529 2.17325,-5.579088 5.28716,-5.579088 3.08147,0 5.25472,2.270559 5.25472,5.579088 0,3.340965 -2.17325,5.611524 -5.25472,5.611524 -3.11391,0 -5.28716,-2.270559 -5.28716,-5.611524 z" /><path
     id="path4733"
     style="font-style:normal;font-variant:normal;font-weight:normal;font-stretch:normal;line-height:28.38199043px;font-family:Trueno;-inkscape-font-specification:Trueno;letter-spacing:0px;stroke:none;stroke-width:0.81091392"
     d="m 164.43398,62.487037 h 2.43274 v 8.95249 c 0,3.535585 2.23812,5.027666 4.83305,5.027666 1.45964,0 2.88685,-0.454112 4.24919,-1.265025 L 175.0083,72.34775 c -1.00554,0.486549 -1.81645,0.746041 -2.59493,0.746041 -1.16772,0 -1.84888,-0.551421 -1.84888,-2.335432 v -8.271322 h 5.09254 v -2.789544 h -5.09254 v -4.735737 h -3.69777 v 4.735737 h -2.43274 z" /><path
     id="path4735"
     style="font-style:normal;font-variant:normal;font-weight:normal;font-stretch:normal;line-height:28.38199043px;font-family:Trueno;-inkscape-font-specification:Trueno;letter-spacing:0px;stroke:none;stroke-width:0.81091392"
     d="m 177.55102,67.676886 c 0,5.189849 3.66533,8.757871 9.01736,8.757871 5.3196,0 8.98493,-3.568022 8.98493,-8.757871 0,-5.222286 -3.66533,-8.75787 -8.98493,-8.75787 -5.35203,0 -9.01736,3.535584 -9.01736,8.75787 z m 3.7302,0.03244 c 0,-3.308529 2.17325,-5.579088 5.28716,-5.579088 3.08148,0 5.25473,2.270559 5.25473,5.579088 0,3.340965 -2.17325,5.611524 -5.25473,5.611524 -3.11391,0 -5.28716,-2.270559 -5.28716,-5.611524 z" /><path
     id="path4737"
     style="font-style:normal;font-variant:normal;font-weight:normal;font-stretch:normal;line-height:28.38199043px;font-family:Trueno;-inkscape-font-specification:Trueno;letter-spacing:0px;stroke:none;stroke-width:0.81091392"
     d="m 197.82387,67.676886 c 0,5.189849 3.66533,8.757871 9.01736,8.757871 5.3196,0 8.98493,-3.568022 8.98493,-8.757871 0,-5.222286 -3.66533,-8.75787 -8.98493,-8.75787 -5.35203,0 -9.01736,3.535584 -9.01736,8.75787 z m 3.7302,0.03244 c 0,-3.308529 2.17325,-5.579088 5.28716,-5.579088 3.08148,0 5.25473,2.270559 5.25473,5.579088 0,3.340965 -2.17325,5.611524 -5.25473,5.611524 -3.11391,0 -5.28716,-2.270559 -5.28716,-5.611524 z" /></g><g
   id="text4675"
   style="font-style:normal;font-weight:normal;font-size:69.85272217px;line-height:1000;font-family:sans-serif;letter-spacing:0px;word-spacing:0px;fill:#000000;fill-opacity:1;stroke:none;stroke-width:1.74631798"
   aria-label="Yes!"><path
     id="path4718"
     style="font-style:normal;font-variant:normal;font-weight:bold;font-stretch:normal;font-size:69.85272217px;font-family:Trueno;-inkscape-font-specification:'Trueno Bold';font-variant-ligatures:normal;font-variant-caps:normal;font-variant-numeric:normal;font-feature-settings:normal;text-align:start;writing-mode:lr-tb;text-anchor:start;stroke:none;stroke-width:1.74631798"
     d="M 79.454051,0.17876663 97.545906,33.638221 V 49.075672 H 109.90984 V 33.288957 L 127.65243,0.17876663 H 115.21864 L 103.69295,21.483847 91.887835,0.17876663 Z" /><path
     id="path4720"
     style="font-style:normal;font-variant:normal;font-weight:bold;font-stretch:normal;font-size:69.85272217px;font-family:Trueno;-inkscape-font-specification:'Trueno Bold';font-variant-ligatures:normal;font-variant-caps:normal;font-variant-numeric:normal;font-feature-settings:normal;text-align:start;writing-mode:lr-tb;text-anchor:start;stroke:none;stroke-width:1.74631798"
     d="m 124.59201,30.355143 c 0,11.455846 7.6838,19.139645 19.97788,19.139645 6.91542,0 12.57349,-2.444845 16.41539,-6.636008 l -6.3566,-6.216892 c -2.5147,2.514698 -5.72792,3.841899 -9.011,3.841899 -4.47058,0 -7.6838,-2.514698 -8.8713,-6.985272 h 26.47418 c 0.83824,-13.760986 -5.72792,-22.492576 -18.99994,-22.492576 -11.6654,0 -19.62861,7.683799 -19.62861,19.349204 z m 11.94481,-3.352931 c 0.76838,-4.540427 3.63234,-7.613947 7.82351,-7.613947 4.33087,0 7.26468,3.003667 7.26468,7.613947 z" /><path
     id="path4722"
     style="font-style:normal;font-variant:normal;font-weight:bold;font-stretch:normal;font-size:69.85272217px;font-family:Trueno;-inkscape-font-specification:'Trueno Bold';font-variant-ligatures:normal;font-variant-caps:normal;font-variant-numeric:normal;font-feature-settings:normal;text-align:start;writing-mode:lr-tb;text-anchor:start;stroke:none;stroke-width:1.74631798"
     d="m 166.05397,44.255834 c 4.54043,3.492636 10.61761,5.308807 16.90436,5.308807 9.08085,0 15.85657,-4.261016 15.85657,-12.014668 0.0699,-13.132312 -19.76833,-10.617614 -19.76833,-15.786715 0,-1.746318 1.53676,-2.584551 3.7022,-2.584551 3.14337,0 7.33454,1.327202 11.87496,3.772047 l 4.12131,-7.823505 c -4.61028,-2.724256 -10.05879,-4.261016 -15.5073,-4.261016 -8.73159,0 -15.29775,4.191163 -15.29775,11.944816 -0.0699,13.202164 19.41906,10.338202 19.41906,15.856568 0,1.746318 -1.74632,2.58455 -4.12131,2.58455 -4.19117,0 -9.08086,-1.676465 -13.34187,-4.680132 z" /><path
     id="path4724"
     style="font-style:normal;font-variant:normal;font-weight:bold;font-stretch:normal;font-size:69.85272217px;font-family:Trueno;-inkscape-font-specification:'Trueno Bold';font-variant-ligatures:normal;font-variant-caps:normal;font-variant-numeric:normal;font-feature-settings:normal;text-align:start;writing-mode:lr-tb;text-anchor:start;stroke:none;stroke-width:1.74631798"
     d="m 204.17063,43.766865 c 0,3.492636 2.44485,5.867629 5.79778,5.867629 3.42278,0 5.86763,-2.374993 5.86763,-5.867629 0,-3.422783 -2.44485,-5.797776 -5.86763,-5.797776 -3.35293,0 -5.79778,2.374993 -5.79778,5.797776 z m 0.27941,-30.874903 2.09559,19.419057 h 7.26468 l 2.09558,-19.419057 V 0.45817752 h -11.45585 z" /></g></svg>